<?xml version="1.0" encoding="UTF-8" standalone="no"?>
<!DOCTYPE svg PUBLIC "-//W3C//DTD SVG 1.1//EN" "http://www.w3.org/Graphics/SVG/1.1/DTD/svg11.dtd">
<svg width="100%" height="100%" viewBox="0 0 512 512" version="1.1" xmlns="http://www.w3.org/2000/svg" xmlns:xlink="http://www.w3.org/1999/xlink" xml:space="preserve" xmlns:serif="http://www.serif.com/" style="fill-rule:evenodd;clip-rule:evenodd;stroke-linejoin:round;stroke-miterlimit:1.41421;">
    <g transform="matrix(1,0,0,1,0,17.1886)">
        <g transform="matrix(1.21905,0,0,1.21905,-56.0762,-73.1429)">
            <path d="M329.5,365.3C335.5,378.2 348.6,387.2 363.7,387.2C384.5,387.2 401.4,370.3 401.4,349.5C401.4,328.7 384.5,311.8 363.7,311.8C348.5,311.8 335.4,320.8 329.5,333.7L215.7,333.7C216.9,338.8 217.5,344 217.5,349.5C217.5,387.8 186.5,418.8 148.2,418.8C109.9,418.8 78.9,387.8 78.9,349.5C78.9,311.2 109.9,280.2 148.2,280.2L148.2,247.2C91.8,247.2 46,293 46,349.5C46,406 91.8,451.8 148.3,451.8C199.4,451.8 241.8,414.3 249.4,365.3L329.5,365.3Z" style="fill:rgb(54,70,78);fill-rule:nonzero;"/>
        </g>
        <g transform="matrix(1.21905,0,0,1.21905,-56.0762,-73.1429)">
            <path d="M192,242.2L151.7,312C150.6,311.9 149.4,311.8 148.2,311.8C127.4,311.8 110.5,328.7 110.5,349.5C110.5,370.3 127.4,387.2 148.2,387.2C169,387.2 185.9,370.3 185.9,349.5C185.9,341.4 183.3,333.9 179,327.7L236.1,228.8C236.1,228.8 234.7,228.4 232.8,227.7C205.9,218.2 186.7,192.5 186.7,162.4C186.7,124.1 217.7,93.1 256,93.1C294.3,93.1 325.3,124.1 325.3,162.4C325.3,175.2 321.8,187.2 315.7,197.5L344.3,213.9C353.2,198.8 358.3,181.2 358.3,162.3C358.3,105.8 312.5,60 256,60C199.5,60 153.7,105.8 153.7,162.3C153.7,194.7 168.7,223.5 192,242.2Z" style="fill:rgb(71,183,132);fill-rule:nonzero;"/>
        </g>
        <g transform="matrix(1.21905,0,0,1.21905,-56.0762,-73.1429)">
            <path d="M363.7,247.2C350.7,247.2 338.3,249.7 326.8,254.1L286.6,184.4C291,178.2 293.7,170.6 293.7,162.4C293.7,141.6 276.8,124.7 256,124.7C235.2,124.7 218.3,141.6 218.3,162.4C218.3,183.2 235.2,200.1 256,200.1C257.1,200.1 258.2,200 259.2,200L316.3,299C328.7,287.4 345.4,280.2 363.7,280.2C402,280.2 433,311.2 433,349.5C433,387.8 402,418.8 363.7,418.8C338,418.8 315.5,404.8 303.6,383.9L275,400.4C292.6,431.1 325.7,451.8 363.7,451.8C420.2,451.8 466,406 466,349.5C466,293 420.2,247.2 363.7,247.2Z" style="fill:rgb(54,70,78);fill-rule:nonzero;"/>
        </g>
    </g>
</svg>
